<?xml version="1.0" encoding="UTF-8" standalone="no"?>
<!-- Created with Inkscape (http://www.inkscape.org/) -->

<svg
   xmlns:osb="http://www.openswatchbook.org/uri/2009/osb"
   xmlns:dc="http://purl.org/dc/elements/1.1/"
   xmlns:cc="http://creativecommons.org/ns#"
   xmlns:rdf="http://www.w3.org/1999/02/22-rdf-syntax-ns#"
   xmlns:svg="http://www.w3.org/2000/svg"
   xmlns="http://www.w3.org/2000/svg"
   xmlns:xlink="http://www.w3.org/1999/xlink"
   xmlns:sodipodi="http://sodipodi.sourceforge.net/DTD/sodipodi-0.dtd"
   xmlns:inkscape="http://www.inkscape.org/namespaces/inkscape"
   width="744.09448"
   height="1052.3622"
   viewBox="0 0 744.09449 1052.3622"
   id="svg4947"
   version="1.1"
   inkscape:version="0.91 r13725"
   sodipodi:docname="zac_logo.svg"
   inkscape:export-filename="C:\Users\Zac Yauney\Google Drive\EmeraldGov\Logos\twitter_logo.png"
   inkscape:export-xdpi="78.108635"
   inkscape:export-ydpi="78.108635">
  <defs
     id="defs4949">
    <linearGradient
       id="linearGradient5712"
       osb:paint="solid"
       gradientTransform="translate(4.0876273e-6,0)">
      <stop
         style="stop-color:#38a358;stop-opacity:1;"
         offset="0"
         id="stop5714" />
    </linearGradient>
    <linearGradient
       inkscape:collect="always"
       xlink:href="#linearGradient5712"
       id="linearGradient5716"
       x1="11123.66"
       y1="4504"
       x2="11840"
       y2="4504"
       gradientUnits="userSpaceOnUse"
       gradientTransform="translate(-1981.8639,0)" />
  </defs>
  <sodipodi:namedview
     id="base"
     pagecolor="#ffffff"
     bordercolor="#666666"
     borderopacity="1.0"
     inkscape:pageopacity="0"
     inkscape:pageshadow="2"
     inkscape:zoom="0.24748737"
     inkscape:cx="958.18157"
     inkscape:cy="1033.969"
     inkscape:document-units="px"
     inkscape:current-layer="layer1"
     showgrid="false"
     showborder="false"
     units="px"
     inkscape:object-nodes="false"
     inkscape:snap-intersection-paths="false"
     inkscape:object-paths="true"
     inkscape:snap-nodes="true"
     inkscape:snap-others="false"
     inkscape:window-width="1920"
     inkscape:window-height="1137"
     inkscape:window-x="1912"
     inkscape:window-y="-8"
     inkscape:window-maximized="1" />
  <metadata
     id="metadata4952">
    <rdf:RDF>
      <cc:Work
         rdf:about="">
        <dc:format>image/svg+xml</dc:format>
        <dc:type
           rdf:resource="http://purl.org/dc/dcmitype/StillImage" />
        <dc:title></dc:title>
      </cc:Work>
    </rdf:RDF>
  </metadata>
  <g
     inkscape:label="Layer 1"
     inkscape:groupmode="layer"
     id="layer1">
    <g
       transform="matrix(0.19444112,0,0,0.24911635,-1157.8464,-803.24695)"
       style="fill:#43c76a;stroke:none"
       id="layer1-2"
       inkscape:export-xdpi="17.493536"
       inkscape:export-ydpi="17.493536">
      <path
         inkscape:connector-curvature="0"
         d="m 6115,4893 c -80,-42 -124,-114 -125,-203 0,-30 7,-125 15,-210 8,-85 22,-240 30,-345 9,-104 22,-211 31,-237 20,-60 82,-130 142,-160 43,-21 63,-23 226,-26 l 179,-4 -7,32 c -3,18 -6,38 -6,45 0,10 -32,14 -129,17 -199,5 -211,20 -234,283 -8,94 -13,173 -10,178 2,4 65,7 139,7 145,0 140,-2 128,58 l -6,31 -137,3 -136,3 -18,184 c -17,177 -17,185 1,215 30,52 71,66 200,66 112,0 112,0 112,24 0,57 2,56 -189,56 -140,-1 -182,-4 -206,-17 z"
         id="path3339" />
      <path
         inkscape:connector-curvature="0"
         d="m 6630,4884 c 0,-25 42,-518 55,-642 5,-52 5,-52 -26,-59 -28,-5 -30,-9 -25,-36 3,-16 6,-33 6,-38 0,-5 191,-9 430,-9 408,0 432,1 484,20 67,26 121,82 130,136 4,22 -2,148 -14,282 -22,257 -20,278 22,284 19,2 24,10 26,46 l 3,42 -81,0 c -97,0 -146,-21 -175,-73 -18,-35 -18,-40 0,-249 11,-117 19,-243 20,-280 0,-60 -3,-70 -27,-95 -22,-21 -39,-27 -85,-31 -42,-3 -62,0 -70,9 -6,8 -22,156 -37,329 -15,173 -30,332 -33,353 l -6,37 -98,0 c -55,0 -99,-1 -99,-2 0,-2 11,-126 25,-277 36,-395 35,-409 -30,-437 -38,-15 -103,-18 -123,-5 -9,5 -19,74 -32,222 -10,118 -24,278 -31,357 l -13,142 -98,0 -98,0 0,-26 z"
         id="path3341" />
      <path
         inkscape:connector-curvature="0"
         d="m 7940,4889 c -50,-23 -105,-70 -126,-111 -19,-37 -17,-115 5,-163 10,-22 34,-55 54,-72 43,-38 44,-43 16,-69 -31,-27 -59,-92 -59,-137 0,-80 55,-158 145,-205 38,-19 70,-26 133,-30 89,-5 146,10 198,50 31,25 63,91 64,131 0,25 -3,27 -44,27 -40,0 -44,-2 -50,-30 -8,-40 -44,-76 -93,-90 -87,-26 -158,46 -158,158 0,57 3,66 28,88 26,22 36,24 138,24 l 109,0 0,45 0,45 -116,0 c -114,0 -116,0 -144,28 -26,27 -50,85 -50,124 0,10 7,35 16,57 20,50 69,76 122,66 43,-8 112,-72 112,-104 0,-18 6,-21 45,-21 52,0 56,10 26,76 -23,50 -80,98 -140,119 -65,22 -176,19 -231,-6 z"
         id="path3343" />
      <path
         inkscape:connector-curvature="0"
         d="m 8453,4833 c 16,-198 47,-553 53,-596 6,-46 5,-47 -25,-53 -28,-6 -31,-10 -31,-45 l 0,-39 134,0 133,0 -4,24 c -7,37 10,38 79,6 53,-25 75,-30 138,-30 l 75,0 -9,100 -9,100 -48,0 -49,0 0,-50 c 0,-28 -5,-50 -10,-50 -25,0 -70,33 -114,81 -66,73 -81,134 -102,407 l -17,222 -100,0 -100,0 6,-77 z"
         id="path3345" />
      <path
         inkscape:connector-curvature="0"
         d="m 9164,4881 c -33,-16 -70,-41 -82,-55 -43,-55 -45,-83 -27,-289 23,-274 27,-290 84,-347 80,-80 121,-90 381,-90 203,0 220,1 220,18 0,9 -12,160 -26,334 -25,298 -26,319 -10,343 9,14 23,25 31,25 10,0 15,10 15,33 0,54 -9,60 -92,56 -64,-4 -80,-8 -113,-33 -34,-26 -40,-28 -59,-16 -66,43 -91,50 -176,50 -73,0 -94,-4 -146,-29 z m 256,-78 c 60,-35 67,-60 90,-309 12,-127 20,-248 18,-270 l -3,-39 -81,-3 c -44,-1 -92,2 -107,7 -50,19 -56,42 -79,306 -19,228 -19,250 -5,281 26,53 102,65 167,27 z"
         id="path3347" />
      <path
         inkscape:connector-curvature="0"
         d="m 9983,4885 c -87,-44 -105,-91 -92,-236 33,-361 69,-787 69,-811 0,-23 -4,-28 -25,-28 -23,0 -25,-4 -25,-45 l 0,-45 130,0 c 89,0 130,4 130,11 0,6 -11,138 -25,293 -66,751 -64,719 -50,752 7,18 23,35 34,39 17,5 21,14 21,51 l 0,44 -58,0 c -42,0 -72,-7 -109,-25 z"
         id="path3349" />
      <path
         inkscape:connector-curvature="0"
         d="m 10389,4896 c -59,-21 -107,-55 -129,-92 -27,-42 -27,-108 -4,-351 17,-185 26,-214 76,-265 65,-65 117,-82 265,-88 72,-3 133,-7 136,-10 4,-5 27,-228 27,-264 0,-11 -9,-16 -30,-16 -32,0 -37,-16 -24,-67 6,-22 10,-23 135,-23 71,0 129,3 129,8 0,4 -11,129 -24,277 -74,822 -70,762 -52,790 9,14 25,25 36,25 21,0 24,10 14,59 l -6,31 -70,0 c -66,0 -103,-12 -160,-52 -13,-10 -20,-9 -35,5 -51,46 -200,63 -284,33 z m 226,-96 c 57,-35 64,-58 90,-341 21,-210 23,-264 13,-271 -21,-12 -170,-9 -198,5 -14,7 -30,24 -36,37 -17,36 -56,502 -45,531 25,67 102,84 176,39 z"
         id="path3351" />
    </g>
    <g
       transform="matrix(0.19444112,0,0,0.24911635,-1157.8464,-803.24695)"
       style="fill:#38a358;stroke:none"
       id="layer2"
       inkscape:export-xdpi="17.493536"
       inkscape:export-ydpi="17.493536">
      <path
         inkscape:connector-curvature="0"
         d="m 11240,5220 0,-40 105,0 c 102,0 105,-1 139,-30 19,-17 39,-45 45,-63 14,-48 25,-207 13,-207 -5,0 -27,7 -48,16 -56,23 -204,16 -260,-14 -53,-27 -101,-83 -109,-125 -6,-33 8,-233 45,-631 22,-234 34,-268 107,-319 69,-47 86,-50 331,-55 l 232,-4 0,23 c 0,13 -3,34 -6,47 -6,22 -7,22 -204,22 l -198,0 -26,30 c -29,35 -27,23 -61,410 -40,470 -40,462 -22,497 42,81 186,63 230,-29 13,-27 47,-349 47,-441 0,-15 12,-17 95,-17 l 95,0 0,30 c 0,16 -4,73 -10,127 -5,54 -19,211 -31,348 -11,138 -25,267 -30,288 -14,54 -73,115 -144,149 -57,27 -67,28 -197,28 l -138,0 0,-40 z"
         id="path3354"
         style="fill:url(#linearGradient5716);fill-opacity:1" />
      <path
         inkscape:connector-curvature="0"
         d="m 11988,4896 c -77,-28 -135,-86 -144,-148 -10,-60 34,-447 54,-487 24,-46 102,-105 161,-123 72,-21 207,-16 261,10 105,49 133,106 119,243 -4,46 -13,143 -19,214 -9,106 -16,137 -35,171 -29,50 -81,91 -146,115 -59,23 -195,25 -251,5 z m 180,-82 c 44,-30 53,-68 71,-288 18,-224 15,-270 -20,-298 -24,-21 -77,-23 -100,-5 -42,33 -50,62 -70,279 -11,117 -18,227 -14,244 12,68 82,104 133,68 z"
         id="path3356" />
      <path
         inkscape:connector-curvature="0"
         d="m 12534,4803 c 4,-59 16,-198 27,-308 10,-110 19,-219 19,-242 0,-39 -2,-43 -25,-43 -21,0 -25,-5 -25,-29 0,-60 1,-61 131,-61 107,0 119,2 119,18 0,23 -28,352 -45,531 -8,80 -11,149 -8,154 9,14 70,1 109,-24 19,-12 47,-39 61,-60 23,-35 27,-56 44,-261 11,-123 23,-252 27,-288 l 7,-65 93,-3 92,-3 0,28 c 0,73 -42,447 -53,482 -36,104 -125,202 -225,249 -52,25 -69,27 -206,30 l -149,3 7,-108 z"
         id="path3358" />
    </g>
    <path
       id="path5641"
       style="fill:none;fill-rule:evenodd;stroke:url(#linearGradient5712);stroke-width:20;stroke-linecap:round;stroke-linejoin:round;stroke-miterlimit:10.89999962;stroke-dasharray:none;stroke-opacity:1"
       d="M -495.47094,56.200604 -344.19546,206.81711 -192.91997,56.289721 -41.644492,206.87379 m -605.101968,-0.22706 151.27552,-150.446126 302.55097,0.08911 M -344.22206,488.07653 -646.79966,206.81711 m 605.155168,0 -302.381608,281.25942"
       inkscape:connector-curvature="0"
       sodipodi:nodetypes="ccccccccccc"
       inkscape:export-xdpi="17.493536"
       inkscape:export-ydpi="17.493536" />
  </g>
</svg>
