<?xml version="1.0" encoding="UTF-8" standalone="no"?>
<!-- Created with Inkscape (http://www.inkscape.org/) -->

<svg
   xmlns:dc="http://purl.org/dc/elements/1.1/"
   xmlns:cc="http://creativecommons.org/ns#"
   xmlns:rdf="http://www.w3.org/1999/02/22-rdf-syntax-ns#"
   xmlns:svg="http://www.w3.org/2000/svg"
   xmlns="http://www.w3.org/2000/svg"
   xmlns:xlink="http://www.w3.org/1999/xlink"
   xmlns:sodipodi="http://sodipodi.sourceforge.net/DTD/sodipodi-0.dtd"
   xmlns:inkscape="http://www.inkscape.org/namespaces/inkscape"
   width="210mm"
   height="297mm"
   viewBox="0 0 744.09448819 1052.3622047"
   id="svg3405"
   version="1.1"
   inkscape:version="0.91 r13725"
   sodipodi:docname="emerald-landing.svg">
  <defs
     id="defs3407">
    <linearGradient
       inkscape:collect="always"
       id="linearGradient3515">
      <stop
         style="stop-color:#008000;stop-opacity:1;"
         offset="0"
         id="stop3517" />
      <stop
         style="stop-color:#008000;stop-opacity:0;"
         offset="1"
         id="stop3519" />
    </linearGradient>
    <linearGradient
       inkscape:collect="always"
       id="linearGradient3507">
      <stop
         style="stop-color:#008000;stop-opacity:1;"
         offset="0"
         id="stop3509" />
      <stop
         style="stop-color:#008000;stop-opacity:0;"
         offset="1"
         id="stop3511" />
    </linearGradient>
    <linearGradient
       inkscape:collect="always"
       id="linearGradient3499">
      <stop
         style="stop-color:#008000;stop-opacity:1;"
         offset="0"
         id="stop3501" />
      <stop
         style="stop-color:#008000;stop-opacity:0;"
         offset="1"
         id="stop3503" />
    </linearGradient>
    <linearGradient
       inkscape:collect="always"
       id="linearGradient3491">
      <stop
         style="stop-color:#008000;stop-opacity:1;"
         offset="0"
         id="stop3493" />
      <stop
         style="stop-color:#008000;stop-opacity:0;"
         offset="1"
         id="stop3495" />
    </linearGradient>
    <linearGradient
       inkscape:collect="always"
       id="linearGradient3485">
      <stop
         style="stop-color:#008000;stop-opacity:1;"
         offset="0"
         id="stop3487" />
      <stop
         style="stop-color:#008000;stop-opacity:0;"
         offset="1"
         id="stop3489" />
    </linearGradient>
    <linearGradient
       inkscape:collect="always"
       xlink:href="#linearGradient3485"
       id="linearGradient3465"
       x1="385.87827"
       y1="228.58281"
       x2="375.27167"
       y2="498.79861"
       gradientUnits="userSpaceOnUse" />
    <linearGradient
       inkscape:collect="always"
       xlink:href="#linearGradient3491"
       id="linearGradient3497"
       x1="490.93414"
       y1="228.58281"
       x2="570.73621"
       y2="303.83917"
       gradientUnits="userSpaceOnUse" />
    <linearGradient
       inkscape:collect="always"
       xlink:href="#linearGradient3499"
       id="linearGradient3505"
       x1="259.10413"
       y1="227.57265"
       x2="176.27162"
       y2="301.81888"
       gradientUnits="userSpaceOnUse" />
    <linearGradient
       inkscape:collect="always"
       xlink:href="#linearGradient3507"
       id="linearGradient3513"
       x1="216.17264"
       y1="225.04727"
       x2="210.11172"
       y2="129.08278"
       gradientUnits="userSpaceOnUse" />
    <linearGradient
       inkscape:collect="always"
       xlink:href="#linearGradient3515"
       id="linearGradient3521"
       x1="385.87827"
       y1="226.5625"
       x2="376.7869"
       y2="127.56755"
       gradientUnits="userSpaceOnUse" />
    <linearGradient
       inkscape:collect="always"
       xlink:href="#linearGradient3507"
       id="linearGradient3529"
       x1="542.4519"
       y1="222.52188"
       x2="555.0788"
       y2="131.60815"
       gradientUnits="userSpaceOnUse" />
  </defs>
  <sodipodi:namedview
     id="base"
     pagecolor="#ffffff"
     bordercolor="#666666"
     borderopacity="1.0"
     inkscape:pageopacity="0.0"
     inkscape:pageshadow="2"
     inkscape:zoom="1.979899"
     inkscape:cx="265.81223"
     inkscape:cy="704.44588"
     inkscape:document-units="px"
     inkscape:current-layer="layer1"
     showgrid="false"
     inkscape:window-width="1920"
     inkscape:window-height="1125"
     inkscape:window-x="1911"
     inkscape:window-y="-9"
     inkscape:window-maximized="1" />
  <metadata
     id="metadata3410">
    <rdf:RDF>
      <cc:Work
         rdf:about="">
        <dc:format>image/svg+xml</dc:format>
        <dc:type
           rdf:resource="http://purl.org/dc/dcmitype/StillImage" />
        <dc:title></dc:title>
      </cc:Work>
    </rdf:RDF>
  </metadata>
  <g
     inkscape:label="Layer 1"
     inkscape:groupmode="layer"
     id="layer1">
    <path
       style="fill:none;fill-rule:evenodd;stroke:#000000;stroke-width:1px;stroke-linecap:butt;stroke-linejoin:miter;stroke-opacity:1"
       d="m 150.013,127.3622 449.987,0 50,100 -275,275 -275,-275 z"
       id="path3413"
       inkscape:connector-curvature="0"
       sodipodi:nodetypes="cccccc" />
    <path
       style="fill:none;fill-rule:evenodd;stroke:#000000;stroke-width:0.68393904px;stroke-linecap:butt;stroke-linejoin:miter;stroke-opacity:1"
       d="m 100,227.3622 550,0"
       id="path3443"
       inkscape:connector-curvature="0"
       sodipodi:nodetypes="cc" />
    <path
       style="fill:none;fill-rule:evenodd;stroke:#000000;stroke-width:1px;stroke-linecap:butt;stroke-linejoin:miter;stroke-opacity:1"
       d="m 450,127.3622 40,100 -115,275 -115,-275 40,-100"
       id="path3445"
       inkscape:connector-curvature="0"
       sodipodi:nodetypes="ccccc" />
    <path
       style="fill:url(#linearGradient3465);fill-opacity:1"
       d="M 374.13968,498.37855 C 357.20805,458.248 261.27364,228.23983 261.4102,228.10326 c 0.1074,-0.1074 51.32636,-0.13795 113.81992,-0.0679 l 113.62465,0.12737 -56.19778,134.35029 c -30.90878,73.89266 -56.52788,135.14578 -56.93135,136.11805 l -0.73356,1.76777 -0.8524,-2.0203 z"
       id="path3447"
       inkscape:connector-curvature="0" />
    <path
       style="fill:url(#linearGradient3505);fill-opacity:1"
       d="M 236.74947,363.24977 101.41061,227.9102 l 79.04408,0.0112 79.04409,0.0112 56.4815,135.14164 c 31.06482,74.3279 56.39748,135.22567 56.29478,135.32836 -0.1027,0.10269 -61.08921,-60.71609 -135.52559,-135.15286 z"
       id="path3449"
       inkscape:connector-curvature="0" />
    <path
       style="fill:url(#linearGradient3513);fill-opacity:1"
       d="m 125.90532,177.40415 24.75054,-49.49905 73.99316,0 c 40.69624,0 73.99317,0.17204 73.99317,0.38231 0,0.21027 -8.81909,22.42731 -19.59798,49.3712 l -19.59798,48.9889 -79.14573,0.12785 -79.14573,0.12784 24.75055,-49.49905 z"
       id="path3451"
       inkscape:connector-curvature="0" />
    <path
       style="fill:url(#linearGradient3521);fill-opacity:1"
       d="m 261.26654,226.51774 c 0,-0.21027 8.81909,-22.42731 19.59798,-49.37121 l 19.59797,-48.98889 74.49869,-0.12793 74.49869,-0.12793 19.13002,47.85764 c 10.52152,26.3217 19.43369,48.59631 19.80482,49.49913 l 0.67479,1.6415 -113.90148,0 c -62.64581,0 -113.90148,-0.17204 -113.90148,-0.38231 z"
       id="path3453"
       inkscape:connector-curvature="0" />
    <path
       style="fill:url(#linearGradient3497);fill-opacity:1"
       d="m 378.0611,497.36839 c 0.31046,-1.29582 112.04061,-268.57386 112.48383,-269.08097 0.18286,-0.20922 35.72009,-0.32286 78.97162,-0.25254 l 78.63916,0.12786 -135.16832,135.1079 C 438.64482,437.57999 377.92799,497.92398 378.0611,497.36839 Z"
       id="path3455"
       inkscape:connector-curvature="0" />
    <path
       style="fill:url(#linearGradient3529);fill-opacity:1"
       d="m 471.11912,178.03392 c -10.75449,-26.87637 -19.66575,-49.15024 -19.8028,-49.49748 -0.19865,-0.50334 14.78969,-0.63134 73.92601,-0.63134 l 74.17519,0 24.62126,49.24562 c 13.5417,27.0851 24.62127,49.35896 24.62127,49.49748 0,0.13851 -35.54715,0.25185 -78.99366,0.25185 l -78.99365,0 -19.55362,-48.86613 z"
       id="path3457"
       inkscape:connector-curvature="0" />
  </g>
</svg>
